<svg xmlns="http://www.w3.org/2000/svg" xmlns:xlink="http://www.w3.org/1999/xlink" width="118" zoomAndPan="magnify" viewBox="0 0 88.5 88.499998" height="118" preserveAspectRatio="xMidYMid meet" version="1.0"><defs><clipPath id="35a0829b71"><path d="M 0 0 L 87.703125 0 L 87.703125 87.703125 L 0 87.703125 Z M 0 0 " clip-rule="nonzero"/></clipPath><clipPath id="d90017aafd"><path d="M 0 0 L 87.703125 0 L 87.703125 87.703125 L 0 87.703125 Z M 0 0 " clip-rule="nonzero"/></clipPath><clipPath id="3379eb4667"><rect x="0" width="88" y="0" height="88"/></clipPath><clipPath id="fa19d583d5"><path d="M 3.90625 3.90625 L 83.796875 3.90625 L 83.796875 83.796875 L 3.90625 83.796875 Z M 3.90625 3.90625 " clip-rule="nonzero"/></clipPath><clipPath id="de87681ae5"><path d="M 0.90625 0.90625 L 80.796875 0.90625 L 80.796875 80.796875 L 0.90625 80.796875 Z M 0.90625 0.90625 " clip-rule="nonzero"/></clipPath><clipPath id="60925359f0"><rect x="0" width="81" y="0" height="81"/></clipPath><clipPath id="ebba5decba"><path d="M 3.90625 3.90625 L 83.707031 3.90625 L 83.707031 83.707031 L 3.90625 83.707031 Z M 3.90625 3.90625 " clip-rule="nonzero"/></clipPath></defs><g clip-path="url(#35a0829b71)"><g transform="matrix(1, 0, 0, 1, 0, 0.000000000000004895)"><g clip-path="url(#3379eb4667)"><g clip-path="url(#d90017aafd)"><path fill="#3795c5" d="M 0 0 L 87.703125 0 L 87.703125 87.703125 L 0 87.703125 Z M 0 0 " fill-opacity="1" fill-rule="nonzero"/></g></g></g></g><g clip-path="url(#fa19d583d5)"><g transform="matrix(1, 0, 0, 1, 3, 3)"><g clip-path="url(#60925359f0)"><g clip-path="url(#de87681ae5)"><path fill="#3795c5" d="M 0.90625 0.90625 L 80.796875 0.90625 L 80.796875 80.796875 L 0.90625 80.796875 Z M 0.90625 0.90625 " fill-opacity="1" fill-rule="nonzero"/></g></g></g></g><g clip-path="url(#ebba5decba)"><path stroke-linecap="butt" transform="matrix(0.745787, 0, 0, 0.745787, 3.907629, 3.907629)" fill="none" stroke-linejoin="miter" d="M -0.00184961 -0.0018496 L 107.110321 -0.0018496 L 107.110321 107.110321 L -0.00184961 107.110321 Z M -0.00184961 -0.0018496 " stroke="#ffffff" stroke-width="16" stroke-opacity="1" stroke-miterlimit="4"/></g></svg>